<svg xmlns="http://www.w3.org/2000/svg" viewBox="0 0 1024 1024" width="1024" height="1024">
  <defs>
    <linearGradient id="bg" x1="0" y1="0" x2="1" y2="1">
      <stop offset="0%" stop-color="#6366f1"/>
      <stop offset="50%" stop-color="#a855f7"/>
      <stop offset="100%" stop-color="#ec4899"/>
    </linearGradient>
    <linearGradient id="topShine" x1="0" y1="0" x2="0" y2="1">
      <stop offset="0%" stop-color="#ffffff" stop-opacity="0.30"/>
      <stop offset="100%" stop-color="#ffffff" stop-opacity="0"/>
    </linearGradient>
    <linearGradient id="bodyShade" x1="0" y1="0" x2="0" y2="1">
      <stop offset="0%" stop-color="#ffffff"/>
      <stop offset="100%" stop-color="#f1f3fa"/>
    </linearGradient>
    <filter id="softShadow" x="-10%" y="-10%" width="120%" height="130%">
      <feGaussianBlur in="SourceAlpha" stdDeviation="16"/>
      <feOffset dx="0" dy="14"/>
      <feComponentTransfer><feFuncA type="linear" slope="0.35"/></feComponentTransfer>
      <feMerge><feMergeNode/><feMergeNode in="SourceGraphic"/></feMerge>
    </filter>
  </defs>

  <rect width="1024" height="1024" rx="224" ry="224" fill="url(#bg)"/>

  <path d="M 0 224 Q 0 0 224 0 L 800 0 Q 1024 0 1024 224 L 1024 520 L 0 520 Z" fill="url(#topShine)"/>

  <g filter="url(#softShadow)">
    <path d="M 408 352 Q 408 264 496 264 L 528 264 Q 616 264 616 352 L 616 388 L 568 388 L 568 352 Q 568 312 528 312 L 496 312 Q 456 312 456 352 L 456 388 L 408 388 Z" fill="url(#bodyShade)"/>

    <rect x="232" y="364" width="560" height="404" rx="60" ry="60" fill="url(#bodyShade)"/>

    <rect x="232" y="456" width="560" height="6" fill="#0b0d12" opacity="0.08"/>

    <circle cx="512" cy="459" r="14" fill="#0b0d12" opacity="0.18"/>

    <rect x="296" y="510" width="280" height="40" rx="20" ry="20" fill="#6366f1"/>
    <rect x="296" y="572" width="408" height="40" rx="20" ry="20" fill="#a855f7"/>
    <rect x="296" y="634" width="220" height="40" rx="20" ry="20" fill="#ec4899"/>

    <circle cx="540" cy="530" r="6" fill="#ffffff" opacity="0.6"/>
    <circle cx="668" cy="592" r="6" fill="#ffffff" opacity="0.6"/>
    <circle cx="480" cy="654" r="6" fill="#ffffff" opacity="0.6"/>
  </g>
</svg>
